<svg width="150" height="150" viewBox="0 0 150 150" fill="none" xmlns="http://www.w3.org/2000/svg">
<rect width="150" height="150" rx="30" fill="white"/>
<path d="M18.4955 78.4705C19.9077 78.2996 21.3236 78.1323 22.7429 77.9686C22.7429 76.9719 22.7429 75.9753 22.7429 74.9786C21.3236 75.1851 19.9077 75.3915 18.4955 75.598C18.4955 76.559 18.4955 77.5165 18.4955 78.4705ZM13.2368 79.0898C13.2368 78.1786 13.2368 77.2674 13.2368 76.3562C11.8245 76.5555 10.4123 76.7513 9 76.9435C9 77.8262 9 78.7018 9 79.5704C10.4123 79.4137 11.8245 79.2536 13.2368 79.0898ZM14.0032 76.2387C14.0032 81.1579 14.0032 86.0735 14.0032 90.9855C15.2452 90.9784 16.4871 90.9749 17.729 90.9749C17.729 85.8848 17.729 80.7948 17.729 75.7048C16.4871 75.8827 15.2452 76.0607 14.0032 76.2387ZM29.4068 77.1677C31.9545 76.8616 34.5023 76.559 37.05 76.26C37.05 75.1424 37.05 74.0211 37.05 72.8964C34.5023 73.2665 31.9545 73.6367 29.4068 74.0069C29.4068 75.0605 29.4068 76.1141 29.4068 77.1677ZM29.4068 83.831C31.8197 83.6815 34.2326 83.532 36.6455 83.3825C36.6455 82.3076 36.6455 81.2291 36.6455 80.147C34.2326 80.3606 31.8197 80.5741 29.4068 80.7877C29.4068 81.8057 29.4068 82.8201 29.4068 83.831ZM29.4068 90.9428C32.0681 90.9357 34.7258 90.925 37.38 90.9108C37.38 89.786 37.38 88.6648 37.38 87.5471C34.7258 87.6254 32.0681 87.7037 29.4068 87.782C29.4068 88.8285 29.4068 89.8821 29.4068 90.9428ZM28.6403 74.1137C27.3984 74.2988 26.1565 74.4803 24.9145 74.6583C24.9145 80.09 24.9145 85.5218 24.9145 90.9535C26.1565 90.9464 27.3984 90.9428 28.6403 90.9428C28.6403 85.3331 28.6403 79.7234 28.6403 74.1137ZM43.7884 71.9246C42.5465 72.1026 41.3045 72.2806 40.0626 72.4585C40.0626 78.6093 40.0626 84.7565 40.0626 90.9001C41.3045 90.9001 42.5465 90.8966 43.7884 90.8894C43.7884 84.5678 43.7884 78.2462 43.7884 71.9246ZM44.5548 90.8894C46.8542 90.8752 49.1536 90.8645 51.4529 90.8574C51.4529 89.6116 51.4529 88.3693 51.4529 87.1307C49.1536 87.1947 46.8542 87.2624 44.5548 87.3335C44.5548 88.5153 44.5548 89.7006 44.5548 90.8894ZM58.1381 73.7613C60.6787 73.4623 63.2229 73.1633 65.7706 72.8643C65.7706 71.4975 65.7706 70.1378 65.7706 68.7852C63.2229 69.1411 60.6787 69.5006 58.1381 69.8637C58.1381 71.1665 58.1381 72.4657 58.1381 73.7613ZM58.1381 82.0371C60.5439 81.8876 62.9532 81.7381 65.3661 81.5886C65.3661 80.2644 65.3661 78.9403 65.3661 77.6162C62.9532 77.8298 60.5439 78.0398 58.1381 78.2462C58.1381 79.5134 58.1381 80.777 58.1381 82.0371ZM58.1381 90.8254C60.7923 90.8111 63.4465 90.7969 66.1006 90.7827C66.1006 89.4158 66.1006 88.049 66.1006 86.6822C63.4465 86.7605 60.7923 86.8423 58.1381 86.9278C58.1381 88.2234 58.1381 89.5226 58.1381 90.8254ZM57.3716 69.9705C56.1226 70.1484 54.8771 70.3264 53.6352 70.5044C53.6352 77.2887 53.6352 84.0695 53.6352 90.8467C54.8771 90.8396 56.1226 90.8325 57.3716 90.8254C57.3716 83.8773 57.3716 76.9257 57.3716 69.9705ZM68.251 90.772C68.5987 90.772 68.9465 90.7684 69.2942 90.7613C71.8561 88.2341 74.4216 85.6499 76.9906 83.0088C79.1623 80.6916 81.2806 77.9899 81.2806 74.0283C81.2806 69.5861 79.109 66.5214 75.1703 66.831C75.1703 68.148 75.1703 69.465 75.1703 70.782C76.65 70.9102 77.5229 72.7896 77.5229 74.2739C77.5229 76.6445 76.9587 77.8298 73.4565 81.5459C71.7248 83.3256 69.9897 85.0768 68.251 86.7996C68.251 88.1237 68.251 89.4479 68.251 90.772ZM74.7658 86.6074C73.3677 88.0098 71.9697 89.3945 70.5716 90.7613C74.1484 90.7399 77.7252 90.7186 81.3019 90.6972C81.3019 89.2734 81.3019 87.8461 81.3019 86.4152C79.1232 86.4793 76.9445 86.5433 74.7658 86.6074ZM74.4039 66.9378C70.2948 67.7067 68.2723 71.978 68.2723 75.1709C68.2723 75.776 68.2723 76.3775 68.2723 76.9755C69.4645 77.0325 70.6568 77.0965 71.849 77.1677C71.849 76.8367 71.7958 75.8009 71.7958 75.0214C71.7958 73.1847 72.9029 71.3266 74.4039 70.8781C74.4039 69.5683 74.4039 68.2548 74.4039 66.9378ZM92.1813 69.2657C94.0229 69.3084 96.4181 71.1237 96.4181 77.5094C96.4181 83.3825 94.2784 86.0415 92.1813 86.3618C92.1813 88.0063 92.1813 89.6508 92.1813 91.2952C93.9165 91.1884 95.7368 90.3662 97.1845 88.5829C98.2384 90.9428 100.048 92 100.868 92C101.201 90.3413 101.535 88.6755 101.868 87.0025C100.74 86.885 99.7713 86.2337 99.0581 85.2192C99.8245 83.1263 100.304 80.478 100.304 77.2211C100.304 66.6175 95.5771 64.0653 92.1813 64.3323C92.1813 65.9768 92.1813 67.6212 92.1813 69.2657ZM91.4148 64.4497C87.8594 65.1866 83.2926 69.0628 83.2926 78.4812C83.2926 87.0879 87.3803 91.0603 91.4148 91.3059C91.4148 89.6614 91.4148 88.0205 91.4148 86.3832C89.2645 86.1589 87.1781 83.6495 87.1781 78.1928C87.1781 72.2236 89.4987 69.8423 91.4148 69.3511C91.4148 67.7209 91.4148 66.0871 91.4148 64.4497ZM109.756 85.9133C107.894 85.7638 106.904 84.098 106.904 80.2431C106.904 74.4412 106.904 68.657 106.904 62.8907C105.647 63.0687 104.395 63.2466 103.146 63.4246C103.146 69.6964 103.146 75.9717 103.146 82.2506C103.146 88.8499 107.074 91.0817 109.756 91.2845C109.756 89.4977 109.756 87.7073 109.756 85.9133ZM110.523 91.2845C115.941 91.0283 117.4 85.4969 117.4 80.9692C117.4 74.4198 117.4 67.8882 117.4 61.3744C116.151 61.5523 114.898 61.7339 113.642 61.919C113.642 67.906 113.642 73.9072 113.642 79.9227C113.642 84.0232 112.726 85.6784 110.523 85.892C110.523 87.693 110.523 89.4906 110.523 91.2845ZM124.191 90.5157C124.191 80.4709 124.191 70.4261 124.191 60.3813C122.949 60.5664 121.707 60.7479 120.465 60.9259C120.465 70.7927 120.465 80.6595 120.465 90.5264C121.707 90.5264 122.949 90.5228 124.191 90.5157ZM137.625 58.4378C134.269 58.9219 130.912 59.406 127.555 59.8901C127.555 61.7766 127.555 63.6667 127.555 65.5603C130.032 65.2684 132.512 64.973 134.996 64.674C135.869 62.6024 136.745 60.5237 137.625 58.4378ZM138.615 58.299C134.698 67.4824 130.781 76.4629 126.863 85.2406C126.863 86.999 126.863 88.7573 126.863 90.5157C127.58 90.5157 128.297 90.5121 129.014 90.505C132.924 81.7915 136.834 72.8501 140.745 63.6809C140.745 61.7802 140.745 59.8865 140.745 58C140.035 58.0997 139.325 58.1993 138.615 58.299ZM130.035 90.505C133.69 90.4908 137.345 90.4694 141 90.441C141 88.4405 141 86.4366 141 84.429C138.218 84.5216 135.44 84.6106 132.665 84.696C131.792 86.6466 130.915 88.5829 130.035 90.505Z" fill="#191919"/>
</svg>
