<svg width="25" height="24" viewBox="0 0 25 24" fill="none" xmlns="http://www.w3.org/2000/svg">
<path d="M6.03809 8.61429V5.42393C6.03809 3.72961 7.40796 2.35974 9.10227 2.35974H16.186" stroke="#ED7043" stroke-width="1.5" stroke-linecap="round" stroke-linejoin="round"/>
<path d="M16.186 21.6461H9.10227C7.40796 21.6461 6.03809 20.2762 6.03809 18.5819V15.3915" stroke="#ED7043" stroke-width="1.5" stroke-linecap="round" stroke-linejoin="round"/>
<path d="M3.44287 12.0029H11.7883" stroke="#ED7043" stroke-width="1.5" stroke-linecap="round" stroke-linejoin="round"/>
<path d="M9.06689 15.3915L11.7886 12.0029L9.06689 8.61426" stroke="#ED7043" stroke-width="1.5" stroke-linecap="round" stroke-linejoin="round"/>
<path d="M20.7102 21.9346L17.7362 22.9439C16.9611 23.1963 16.186 22.5654 16.186 21.6822V2.32374C16.186 1.44054 16.9611 0.791651 17.7362 1.06202L20.7102 2.0714C21.2149 2.23362 21.5574 2.75634 21.5574 3.33312V20.6728C21.5574 21.2496 21.2149 21.7723 20.7102 21.9346Z" stroke="#ED7043" stroke-width="1.5" stroke-linecap="round" stroke-linejoin="round"/>
</svg>
