<svg width="18" height="19" viewBox="0 0 18 19" fill="none" xmlns="http://www.w3.org/2000/svg">
<path fill-rule="evenodd" clip-rule="evenodd" d="M9 0.676331C9.55229 0.676331 10 1.12405 10 1.67633V8.67633H17C17.5523 8.67633 18 9.12405 18 9.67633C18 10.2286 17.5523 10.6763 17 10.6763H10V17.6763C10 18.2286 9.55229 18.6763 9 18.6763C8.44772 18.6763 8 18.2286 8 17.6763V10.6763H1C0.447715 10.6763 0 10.2286 0 9.67633C0 9.12405 0.447715 8.67633 1 8.67633H8V1.67633C8 1.12405 8.44772 0.676331 9 0.676331Z" fill="#332E2D"/>
</svg>
