<svg width="137" height="41" viewBox="0 0 137 41" fill="none" xmlns="http://www.w3.org/2000/svg">
<path d="M9.85516 24.6181C11.3209 24.4126 12.7904 24.2114 14.2635 24.0145C14.2635 22.8159 14.2635 21.6173 14.2635 20.4188C12.7904 20.667 11.3209 20.9153 9.85516 21.1636C9.85516 22.3194 9.85516 23.4709 9.85516 24.6181ZM4.39726 25.3629C4.39726 24.2671 4.39726 23.1712 4.39726 22.0754C2.93151 22.3151 1.46575 22.5505 0 22.7817C0 23.8433 0 24.8963 0 25.9408C1.46575 25.7525 2.93151 25.5598 4.39726 25.3629ZM5.19274 21.9341C5.19274 27.85 5.19274 33.7616 5.19274 39.6689C6.48172 39.6603 7.7707 39.6561 9.05968 39.6561C9.05968 33.5347 9.05968 27.4134 9.05968 21.292C7.7707 21.506 6.48172 21.7201 5.19274 21.9341ZM21.1798 23.0514C23.824 22.6832 26.4683 22.3194 29.1125 21.9598C29.1125 20.6157 29.1125 19.2673 29.1125 17.9146C26.4683 18.3598 23.824 18.805 21.1798 19.2501C21.1798 20.5172 21.1798 21.7843 21.1798 23.0514ZM21.1798 31.0648C23.6841 30.885 26.1884 30.7052 28.6927 30.5254C28.6927 29.2326 28.6927 27.9356 28.6927 26.6343C26.1884 26.8911 23.6841 27.148 21.1798 27.4048C21.1798 28.6291 21.1798 29.8491 21.1798 31.0648ZM21.1798 39.6175C23.9419 39.609 26.7003 39.5961 29.455 39.579C29.455 38.2263 29.455 36.8779 29.455 35.5338C26.7003 35.628 23.9419 35.7221 21.1798 35.8163C21.1798 37.0748 21.1798 38.3419 21.1798 39.6175ZM20.3843 19.3786C19.0953 19.6012 17.8063 19.8195 16.5173 20.0335C16.5173 26.5658 16.5173 33.0981 16.5173 39.6304C17.8063 39.6218 19.0953 39.6175 20.3843 39.6175C20.3843 32.8712 20.3843 26.1249 20.3843 19.3786ZM36.1061 16.746C34.8172 16.96 33.5282 17.174 32.2392 17.3881C32.2392 24.785 32.2392 32.1777 32.2392 39.5662C33.5282 39.5662 34.8172 39.5619 36.1061 39.5533C36.1061 31.9509 36.1061 24.3484 36.1061 16.746ZM36.9016 39.5533C39.2881 39.5362 41.6745 39.5234 44.061 39.5148C44.061 38.0166 44.061 36.5226 44.061 35.0329C41.6745 35.11 39.2881 35.1913 36.9016 35.2769C36.9016 36.6981 36.9016 38.1236 36.9016 39.5533ZM50.9994 18.9548C53.6362 18.5952 56.2768 18.2356 58.9211 17.876C58.9211 16.2323 58.9211 14.5971 58.9211 12.9704C56.2768 13.3985 53.6362 13.8308 50.9994 14.2674C50.9994 15.8342 50.9994 17.3966 50.9994 18.9548ZM50.9994 28.9073C53.4963 28.7275 55.9969 28.5477 58.5012 28.368C58.5012 26.7755 58.5012 25.1831 58.5012 23.5907C55.9969 23.8476 53.4963 24.1001 50.9994 24.3484C50.9994 25.8723 50.9994 27.392 50.9994 28.9073ZM50.9994 39.4763C53.7541 39.4591 56.5088 39.442 59.2635 39.4249C59.2635 37.7811 59.2635 36.1374 59.2635 34.4936C56.5088 34.5878 53.7541 34.6862 50.9994 34.7889C50.9994 36.3471 50.9994 37.9095 50.9994 39.4763ZM50.2039 14.3959C48.9075 14.6099 47.6149 14.8239 46.3259 15.038C46.3259 23.1969 46.3259 31.3516 46.3259 39.502C47.6149 39.4934 48.9075 39.4848 50.2039 39.4763C50.2039 31.1204 50.2039 22.7603 50.2039 14.3959ZM61.4953 39.4121C61.8562 39.4121 62.2172 39.4078 62.5781 39.3992C65.237 36.3599 67.8997 33.2522 70.566 30.0759C72.8199 27.2892 75.0185 24.0402 75.0185 19.2758C75.0185 13.9336 72.7647 10.2479 68.6768 10.6203C68.6768 12.2042 68.6768 13.788 68.6768 15.3719C70.2125 15.526 71.1185 17.7862 71.1185 19.5712C71.1185 22.4221 70.5329 23.8476 66.898 28.3166C65.1008 30.4569 63.2999 32.563 61.4953 34.6348C61.4953 36.2272 61.4953 37.8197 61.4953 39.4121ZM68.2569 34.4037C66.8059 36.0903 65.3549 37.7554 63.9039 39.3992C67.6161 39.3735 71.3284 39.3478 75.0406 39.3222C75.0406 37.6099 75.0406 35.8934 75.0406 34.1725C72.7794 34.2496 70.5182 34.3266 68.2569 34.4037ZM67.8813 10.7487C63.6166 11.6734 61.5174 16.8102 61.5174 20.6499C61.5174 21.3776 61.5174 22.1011 61.5174 22.8202C62.7548 22.8887 63.9923 22.9658 65.2297 23.0514C65.2297 22.6533 65.1744 21.4076 65.1744 20.4701C65.1744 18.2613 66.3235 16.0268 67.8813 15.4874C67.8813 13.9122 67.8813 12.3326 67.8813 10.7487ZM86.3321 13.5483C88.2435 13.5997 90.7293 15.7828 90.7293 23.4623C90.7293 30.5254 88.5086 33.7231 86.3321 34.1083C86.3321 36.086 86.3321 38.0637 86.3321 40.0413C88.133 39.9129 90.0223 38.9241 91.5248 36.7795C92.6186 39.6175 94.4968 40.8889 95.3476 40.8889C95.6938 38.8941 96.0399 36.8908 96.3861 34.8788C95.215 34.7376 94.2096 33.9542 93.4694 32.7342C94.2648 30.2172 94.762 27.0324 94.762 23.1156C94.762 10.3635 89.8565 7.29425 86.3321 7.6153C86.3321 9.59296 86.3321 11.5706 86.3321 13.5483ZM85.5366 7.75656C81.8465 8.64266 77.1067 13.3043 77.1067 24.6309C77.1067 34.9816 81.3493 39.7588 85.5366 40.0542C85.5366 38.0765 85.5366 36.1031 85.5366 34.134C83.3048 33.8643 81.1394 30.8465 81.1394 24.2842C81.1394 17.1055 83.5479 14.2418 85.5366 13.651C85.5366 11.6905 85.5366 9.72567 85.5366 7.75656ZM104.573 33.569C102.64 33.3892 101.612 31.3858 101.612 26.7499C101.612 19.7724 101.612 12.8163 101.612 5.88163C100.308 6.09566 99.0083 6.3097 97.7119 6.52373C97.7119 14.0663 97.7119 21.6131 97.7119 29.1642C97.7119 37.1005 101.789 39.7845 104.573 40.0285C104.573 37.8796 104.573 35.7264 104.573 33.569ZM105.368 40.0285C110.992 39.7203 112.506 33.0681 112.506 27.6231C112.506 19.7467 112.506 11.8917 112.506 4.05807C111.209 4.2721 109.909 4.49042 108.606 4.71301C108.606 11.9131 108.606 19.1303 108.606 26.3646C108.606 31.2959 107.655 33.2864 105.368 33.5433C105.368 35.7093 105.368 37.871 105.368 40.0285ZM119.555 39.1039C119.555 27.0238 119.555 14.9438 119.555 2.86376C118.266 3.08636 116.977 3.30467 115.688 3.5187C115.688 15.3847 115.688 27.2507 115.688 39.1167C116.977 39.1167 118.266 39.1124 119.555 39.1039ZM133.498 0.526521C130.014 1.10869 126.53 1.69086 123.046 2.27303C123.046 4.54178 123.046 6.81481 123.046 9.09213C125.616 8.74111 128.191 8.38582 130.769 8.02624C131.675 5.5349 132.584 3.03499 133.498 0.526521ZM134.525 0.359575C130.459 11.4037 126.394 22.2038 122.328 32.7599C122.328 34.8746 122.328 36.9892 122.328 39.1039C123.072 39.1039 123.816 39.0996 124.56 39.091C128.618 28.6119 132.676 17.8589 136.735 6.83194C136.735 4.54606 136.735 2.26875 136.735 0C135.998 0.119859 135.262 0.239717 134.525 0.359575ZM125.62 39.091C129.413 39.0739 133.207 39.0482 137 39.014C137 36.6082 137 34.1982 137 31.7839C134.113 31.8952 131.229 32.0022 128.349 32.105C127.443 34.4508 126.533 36.7794 125.62 39.091Z" fill="#191919"/>
</svg>
